<svg xmlns="http://www.w3.org/2000/svg" viewBox="0 0 100 100"><path fill="#c7ede6" d="M87.22 57.71A15.5 15.5 0 0 0 79 36.02V36a21 21 0 0 0-41.31-5.24 14.98 14.98 0 0 0-19.58 12.5A11.5 11.5 0 0 0 20.5 66l.53-.02c0 .17-.03.34-.03.52a20.5 20.5 0 0 0 36.43 12.89 11.95 11.95 0 0 0 19.24-2.9 11 11 0 0 0 10.55-18.77z"/><path fill="#fdfcef" d="M21.88 59v-.5H7a4.5 4.5 0 0 1-.19-9l.68-.02.23-.64a3.5 3.5 0 0 1 4.47-2.13l1.2.45.14-1.26a5 5 0 0 1 9.62-1.2l.44 1.15 1.03-.66a4.5 4.5 0 0 1 6.88 3.58l.03.73.7.19c1.92.54 1.27 2.31 1.27 4.31 0 2.48-.02 4.5-2.5 4.5h-6.13v.5h-3z"/><path fill="#fdfcef" d="M24.88 58.5H31c2.48 0 1-2.02 1-4.5 0-2.33 1.72-4.23-.56-4.46.03-.18.06-.35.06-.54a4.5 4.5 0 0 0-8.03-2.76 4.99 4.99 0 1 0-9.78 1.54 3.48 3.48 0 0 0-6.14 1.77c-.19-.02-.36-.05-.55-.05a4.5 4.5 0 0 0 0 9h14.88v.5h3v-.5z"/><path fill="#472b29" d="M24.88 59c-.28 0-.5-.23-.5-.5s.22-.5.5-.5H31c2.2 0 2-1.8 2-4 0-2.05.45-3.75-1.6-3.96a.5.5 0 0 1-.34-.18.5.5 0 0 1-.11-.37l.02-.15L31 49a4 4 0 0 0-4-4c-1.22 0-2.36.56-3.13 1.54a.5.5 0 0 1-.55.17.51.51 0 0 1-.35-.45 4.49 4.49 0 1 0-8.8 1.4.5.5 0 0 1-.48.62.5.5 0 0 1-.39-.18A2.99 2.99 0 0 0 11 47a3 3 0 0 0-2.96 2.62.5.5 0 0 1-.5.44l-.2-.03A4 4 0 1 0 7 58h14.87c.27 0 .5.23.5.5s-.23.5-.5.5H7a5 5 0 0 1-.48-9.98l.59-.06.23-.54a3.98 3.98 0 0 1 4.58-2.31l.99.24.22-1A5.54 5.54 0 0 1 18.5 41c2.11 0 4 1.18 4.92 3.08l.45.91.9-.46a4.97 4.97 0 0 1 7.2 3.93l.07.63.6.2C34.64 50 34 51.89 34 54c0 2.76-.24 5-3 5h-6.13z"/><path fill="#472b29" d="M18.5 41a5.5 5.5 0 0 0-5.5 5.5v.05A4 4 0 0 0 7.14 49H7a5 5 0 0 0 0 10h14.88a.5.5 0 0 0 0-1H7a4 4 0 0 1 0-8c.12 0 .23.02.34.03l.14.02h.07a.5.5 0 0 0 .5-.43A3 3 0 0 1 11 47c.89 0 1.72.4 2.3 1.1a.5.5 0 0 0 .61.13.5.5 0 0 0 .26-.58A4.5 4.5 0 0 1 18.5 42a4.49 4.49 0 0 1 4.47 4.26.5.5 0 0 0 .9.29A3.97 3.97 0 0 1 27 45a4 4 0 0 1 4 4c0 .12-.02.23-.03.34l-.02.14a.5.5 0 0 0 .45.56c2.05.2 1.6 1.9 1.6 3.96 0 2.2.2 4-2 4h-6.13a.5.5 0 0 0 0 1H31c2.76 0 3-2.24 3-5 0-2.4.31-4.41-2-4.88V49a5 5 0 0 0-8.18-3.84A5.49 5.49 0 0 0 18.5 41z"/><path fill="#472b29" d="M17 48a3 3 0 0 0-2.91 2.34 2.38 2.38 0 0 0-3.56 1.73 2.94 2.94 0 0 0-3.5 2.66c-.02.14.08.26.22.27h.02c.13 0 .24-.1.25-.23a2.44 2.44 0 0 1 2.42-2.27c.23 0 .47.04.73.13h.07c.06 0 .11-.01.16-.05.06-.04.1-.13.1-.2a1.87 1.87 0 0 1 3.1-1.4c.05.03.11.06.17.06l.1-.02a.25.25 0 0 0 .15-.22A2.5 2.5 0 0 1 17 48.5a2.46 2.46 0 0 1 .75.12.25.25 0 0 0 .07-.5c-.3-.08-.56-.12-.82-.12z"/><path fill="#fff" d="M70.4 24h-9.9a.5.5 0 0 1 0-1h9.9a.5.5 0 0 1 0 1zm3.1 0h-1a.5.5 0 0 1 0-1h1a.5.5 0 0 1 0 1zm5 2h-9a.5.5 0 0 1 0-1h9a.5.5 0 0 1 0 1zm-11 0h-1a.5.5 0 0 1 0-1h1a.5.5 0 0 1 0 1zm-3 0h-2a.5.5 0 0 1 0-1h2a.5.5 0 0 1 0 1zm6 2h-2a.5.5 0 0 1 0-1h2a.5.5 0 0 1 0 1zm3-9h-1a.5.5 0 0 0 0 1h1a.5.5 0 0 0 0-1zm0 2h-5a.5.5 0 0 0 0 1h5a.5.5 0 0 0 0-1zm5 2h-3a.5.5 0 0 0 0 1h3a.5.5 0 0 0 0-1zm-46 58h-10a.5.5 0 0 1 0-1h10a.5.5 0 0 1 0 1zm4 0h-2a.5.5 0 0 1 0-1h2a.5.5 0 0 1 0 1zm5 2h-10a.5.5 0 0 1 0-1h10a.5.5 0 0 1 0 1zm-12 0h-1a.5.5 0 0 1 0-1h1a.5.5 0 0 1 0 1zm-3.12 0H24.5a.5.5 0 0 1 0-1h1.88a.5.5 0 0 1 0 1zm9.12-4h-5a.5.5 0 0 1 0-1h5a.5.5 0 0 1 0 1zm-3 6h-2a.5.5 0 0 1 0-1h2a.5.5 0 0 1 0 1z"/><path fill="#78a0cf" d="M39.77 50.31v19.81h-7.83A2.94 2.94 0 0 1 29 67.18V41.9l10.77 8.42z"/><path fill="#c4211f" d="M39.77 36.64v13.68L29 41.88v-2.62a5.4 5.4 0 0 1 8.7-4.24l2.08 1.61z"/><path fill="#eb4235" d="M66.22 36.64V50.3L53 60.64 39.77 50.31V36.64L53 46.97z"/><path fill="#f1bc19" d="M77 39.27v2.62L66.22 50.3V36.64l2.07-1.62a5.41 5.41 0 0 1 8.7 4.24z"/><path fill="#9ca74c" d="M77 41.9v25.28a2.94 2.94 0 0 1-2.94 2.94h-7.84V50.3L77 41.9z"/><path fill="none" stroke="#472b29" stroke-linecap="round" stroke-linejoin="round" stroke-miterlimit="10" stroke-width=".75" d="M31.94 65.22v1.96m0-7.83v2.94m0-12.74v6.8"/><path fill="none" stroke="#472b29" stroke-linejoin="round" stroke-miterlimit="10" stroke-width="1.4" d="M39.77 36.87v33.25h-7.83A2.94 2.94 0 0 1 29 67.18V39.26a5.39 5.39 0 0 1 5.39-5.38"/><path fill="none" stroke="#472b29" stroke-linejoin="round" stroke-miterlimit="10" stroke-width="1.4" d="M75.86 35.95a5.39 5.39 0 0 0-7.56-.93L53 46.97 37.7 35.02a5.39 5.39 0 0 0-7.56.93"/><path fill="none" stroke="#472b29" stroke-linecap="round" stroke-linejoin="round" stroke-miterlimit="10" stroke-width=".75" d="m54.36 55.84 4.45-3.52m-9.99 1.29 3.47 2.74m-7.31-5.78 2.3 1.82m-4.82-3.82.99.79"/><path fill="none" stroke="#472b29" stroke-linejoin="round" stroke-miterlimit="10" stroke-width="1.4" d="M29.16 42.02 53 60.64l23.83-18.61"/><path fill="none" stroke="#472b29" stroke-linejoin="round" stroke-miterlimit="10" stroke-width="1.4" d="M71.61 33.88A5.39 5.39 0 0 1 77 39.27v27.91a2.94 2.94 0 0 1-2.94 2.94h-7.84V36.8"/><path fill="#fdfcef" d="M84.5 66v-.5H77a3.5 3.5 0 0 1-.13-7l.61-.02.26-.55a2.5 2.5 0 0 1 2.68-1.4l.97.18.18-.97a4 4 0 0 1 7.42-1.2l.48.86.87-.47a3.48 3.48 0 0 1 5.16 2.89l.03.67.63.22A3.5 3.5 0 0 1 95 65.5h-3.5v.5h-7z"/><path fill="#fdfcef" d="M91.5 65.5H95a3.49 3.49 0 0 0 .44-6.95c.03-.18.06-.36.06-.55a3.5 3.5 0 0 0-6.09-2.34 4 4 0 0 0-7.91.84c0 .2.03.37.06.56a2.47 2.47 0 0 0-4.02 1.5A3.5 3.5 0 1 0 77 65.5l7.51-.01v.5h7v-.5z"/><path fill="#472b29" d="M93.25 61a.25.25 0 0 1-.25-.25c0-1.22 1-2.22 2.22-2.22.03.01.74 0 1.24.14a.25.25 0 0 1-.13.48 5.04 5.04 0 0 0-1.11-.12c-.95 0-1.72.77-1.72 1.72 0 .14-.11.25-.25.25z"/><circle cx="86.5" cy="65.5" r=".5" fill="#472b29"/><path fill="#472b29" d="M91.5 66c-.28 0-.5-.23-.5-.5s.23-.5.5-.5H95a3 3 0 0 0 .38-5.96.5.5 0 0 1-.43-.57c.03-.21.05-.34.05-.47a3 3 0 0 0-3-3c-.85 0-1.64.35-2.22 1a.5.5 0 0 1-.5.15.5.5 0 0 1-.36-.38 3.5 3.5 0 0 0-6.89 1.09c.04.27-.06.5-.23.6a.6.6 0 0 1-.29.08.4.4 0 0 1-.27-.1 1.98 1.98 0 0 0-3.2 1.2.5.5 0 0 1-.5.42l-.11-.02c-.17-.02-.3-.04-.43-.04a3 3 0 0 0 0 6h7.5c.28 0 .5.23.5.5s-.22.5-.5.5H77a4 4 0 0 1-.38-7.98l.52-.05.26-.45A3 3 0 0 1 80 56l.95.04.22-.76a4.49 4.49 0 0 1 8.05-1.3l.46.67.76-.32a3.96 3.96 0 0 1 5.53 3.2l.07.58.53.23A4 4 0 0 1 95 66h-3.49z"/><path fill="#472b29" d="M95 66h-3.5a.5.5 0 0 1 0-1H95a3 3 0 0 0 .38-5.96.5.5 0 0 1-.43-.57c.02-.16.05-.31.05-.47a3 3 0 0 0-3-3c-.85 0-1.64.35-2.22 1a.5.5 0 0 1-.86-.23 3.5 3.5 0 0 0-6.92.73c0 .14.02.28.04.42.03.2-.06.44-.24.54-.18.1-.4.12-.56-.01-.36-.3-.8-.45-1.24-.45a2 2 0 0 0-1.96 1.64.5.5 0 0 1-.57.4c-.16-.02-.31-.04-.47-.04a3 3 0 0 0 0 6h7.5a.5.5 0 0 1 0 1H77a4 4 0 1 1 .17-8 3 3 0 0 1 3.84-1.82 4.5 4.5 0 0 1 8.64-1.4A3.98 3.98 0 0 1 96 58.13 4 4 0 0 1 95 66z"/><path fill="#472b29" d="M89.5 65h-1a.5.5 0 0 0 0 1h1a.5.5 0 0 0 0-1z"/></svg>